<svg viewBox="0 0 1 0.22" xmlns="http://www.w3.org/2000/svg" preserveAspectRatio="xMinYMin meet"><path stroke-linejoin="round" stroke-linecap="round" fill="none" stroke="black" stroke-width="0.0025" d="M 0 0.12986693 L 0.0625 0.13265863 L 0.09375 0.13436756 L 0.125 0.13635173 L 0.15625 0.13868234 L 0.1875 0.14145665 L 0.21875 0.14481112 L 0.234375 0.14676405 L 0.25 0.14894184 L 0.265625 0.15138386 L 0.28125 0.15413861 L 0.296875 0.15726608 L 0.3125 0.16084066 L 0.328125 0.1649544 L 0.34375 0.16971955 L 0.359375 0.1752676 L 0.3671875 0.17837879 L 0.375 0.1817356 L 0.3828125 0.18534763 L 0.390625 0.18921268 L 0.40625 0.19755952 L 0.4140625 0.20182493 L 0.421875 0.20580158 L 0.42578125 0.20751438 L 0.4296875 0.2088983 L 0.43359375 0.20978937 L 0.4375 0.20995736 L 0.43945313 0.20967361 L 0.44140625 0.20907839 L 0.44335938 0.20811017 L 0.4453125 0.20669596 L 0.44726563 0.2047491 L 0.44921875 0.20216696 L 0.45117188 0.19882827 L 0.45214844 0.19683158 L 0.453125 0.19459048 L 0.45410156 0.19208339 L 0.45507813 0.1892871 L 0.4560547 0.18617675 L 0.45703125 0.1827259 L 0.4580078 0.17890644 L 0.45898438 0.17468886 L 0.45996094 0.17004244 L 0.4609375 0.16493556 L 0.46191406 0.15933628 L 0.46289063 0.15321322 L 0.4638672 0.14653651 L 0.46484375 0.13927945 L 0.4658203 0.13142055 L 0.46679688 0.122946344 L 0.46777344 0.11385529 L 0.46875 0.10416259 L 0.46972656 0.093906984 L 0.47070313 0.083159134 L 0.47265625 0.06069864 L 0.4736328 0.049401797 L 0.47460938 0.038482893 L 0.47509766 0.033303767 L 0.47558594 0.028402865 L 0.47607422 0.023861045 L 0.4765625 0.019770045 L 0.47705078 0.01623335 L 0.47753906 0.013366545 L 0.47802734 0.011297708 L 0.47827148 0.010605949 L 0.47851563 0.010167253 L 0.47875977 0.010000944 L 0.4790039 0.01012699 L 0.47924805 0.010565883 L 0.4794922 0.011338556 L 0.47973633 0.01246624 L 0.47998047 0.013970345 L 0.4802246 0.015872229 L 0.48046875 0.018192952 L 0.4807129 0.020953089 L 0.48095703 0.024172282 L 0.48120117 0.027868927 L 0.4814453 0.032059766 L 0.48168945 0.03675919 L 0.4819336 0.041978933 L 0.48217773 0.04772706 L 0.48242188 0.05400742 L 0.48266602 0.06081865 L 0.48291016 0.0681533 L 0.4831543 0.07599659 L 0.48339844 0.08432522 L 0.48364258 0.093106166 L 0.48388672 0.10229516 L 0.48413086 0.11183522 L 0.484375 0.12165493 L 0.48535156 0.1617119 L 0.4855957 0.17124748 L 0.48583984 0.18024853 L 0.48608398 0.18850519 L 0.48620605 0.19228294 L 0.48632813 0.1957865 L 0.4864502 0.19898403 L 0.48657227 0.20184278 L 0.48669434 0.20432921 L 0.4868164 0.20640913 L 0.48693848 0.20804803 L 0.48706055 0.20921127 L 0.48718262 0.20986442 L 0.4873047 0.2099737 L 0.48742676 0.20950623 L 0.48754883 0.20843074 L 0.4876709 0.206718 L 0.48779297 0.20434137 L 0.48791504 0.20127764 L 0.4880371 0.1975077 L 0.48815918 0.19301724 L 0.48828125 0.187798 L 0.48840332 0.1818484 L 0.4885254 0.17517462 L 0.48864746 0.16779184 L 0.48876953 0.15972538 L 0.4888916 0.15101147 L 0.48901367 0.14169914 L 0.48913574 0.13185063 L 0.4892578 0.12154295 L 0.48937988 0.110868596 L 0.48950195 0.09993672 L 0.4897461 0.07782252 L 0.48986816 0.06694503 L 0.48999023 0.056419075 L 0.4901123 0.046438664 L 0.49023438 0.03721223 L 0.4902954 0.032950055 L 0.49035645 0.028959543 L 0.49041748 0.025269467 L 0.49047852 0.021908771 L 0.49053955 0.018906498 L 0.4906006 0.016291559 L 0.49066162 0.014092445 L 0.49072266 0.01233719 L 0.4907837 0.011052924 L 0.49084473 0.0102656605 L 0.49090576 0.010000008 L 0.4909668 0.010278845 L 0.49102783 0.011122954 L 0.49108887 0.012550658 L 0.4911499 0.014577436 L 0.49121094 0.017215509 L 0.49127197 0.02047342 L 0.491333 0.024355536 L 0.49139404 0.02886179 L 0.49145508 0.033986975 L 0.4915161 0.039720394 L 0.49157715 0.04604549 L 0.49163818 0.052939124 L 0.49169922 0.060371745 L 0.49176025 0.06830616 L 0.4918213 0.07669798 L 0.49188232 0.08549479 L 0.49194336 0.09463612 L 0.49206543 0.11366981 L 0.4921875 0.13315101 L 0.49230957 0.15230459 L 0.4923706 0.16148469 L 0.49243164 0.17024224 L 0.49249268 0.17845269 L 0.4925537 0.18598859 L 0.49261475 0.19272107 L 0.49264526 0.19574586 L 0.49267578 0.19852182 L 0.4927063 0.2010334 L 0.49273682 0.20326526 L 0.49276733 0.20520261 L 0.49279785 0.20683105 L 0.49282837 0.20813684 L 0.4928589 0.20910692 L 0.4928894 0.20972893 L 0.49291992 0.2099915 L 0.49295044 0.20988426 L 0.49298096 0.20939791 L 0.49301147 0.20852438 L 0.493042 0.20725694 L 0.4930725 0.20559034 L 0.49310303 0.20352086 L 0.49313354 0.20104651 L 0.49316406 0.1981671 L 0.49319458 0.19488433 L 0.4932251 0.19120185 L 0.49325562 0.18712571 L 0.49328613 0.18266395 L 0.49331665 0.17782705 L 0.49334717 0.17262785 L 0.4933777 0.16708185 L 0.4934082 0.16120702 L 0.49343872 0.15502389 L 0.49346924 0.14855587 L 0.49349976 0.14182901 L 0.49353027 0.13487208 L 0.4935913 0.12039657 L 0.49365234 0.10541332 L 0.4937744 0.07526133 L 0.49383545 0.060849298 L 0.49386597 0.053988464 L 0.49389648 0.047429305 L 0.493927 0.041226227 L 0.49395752 0.035433494 L 0.49398804 0.03010546 L 0.49401855 0.025295371 L 0.49404907 0.021055078 L 0.4940796 0.017434657 L 0.4941101 0.0144817475 L 0.49414063 0.012240732 L 0.49417114 0.0107522905 L 0.49420166 0.010052627 L 0.49423218 0.010172862 L 0.4942627 0.011138296 L 0.4942932 0.012967753 L 0.49432373 0.015672797 L 0.49435425 0.01925717 L 0.49438477 0.023716027 L 0.49441528 0.029035658 L 0.4944458 0.035192303 L 0.49447632 0.042152166 L 0.49450684 0.049871285 L 0.49453735 0.058294117 L 0.49456787 0.06735476 L 0.4945984 0.07697569 L 0.4946289 0.08706842 L 0.49465942 0.097534046 L 0.49468994 0.10826288 L 0.49475098 0.13002439 L 0.4947815 0.14079304 L 0.494812 0.15129925 L 0.49484253 0.16139586 L 0.49487305 0.17093232 L 0.49490356 0.17975707 L 0.49491882 0.18385553 L 0.49493408 0.18771999 L 0.49494934 0.19133228 L 0.4949646 0.19467458 L 0.49497986 0.19772966 L 0.49499512 0.20048094 L 0.49501038 0.20291229 L 0.49502563 0.2050086 L 0.4950409 0.20675549 L 0.49505615 0.20813966 L 0.4950714 0.20914881 L 0.49508667 0.2097719 L 0.49510193 0.20999913 L 0.4951172 0.20982218 L 0.49513245 0.20923404 L 0.4951477 0.20822954 L 0.49516296 0.20680495 L 0.49517822 0.20495844 L 0.49519348 0.20269012 L 0.49520874 0.20000179 L 0.495224 0.19689763 L 0.49523926 0.19338354 L 0.49525452 0.18946801 L 0.49526978 0.1851612 L 0.49528503 0.18047622 L 0.4953003 0.17542776 L 0.49531555 0.17003332 L 0.4953308 0.16431251 L 0.49534607 0.15828755 L 0.49536133 0.15198255 L 0.4953766 0.14542435 L 0.49539185 0.13864179 L 0.49542236 0.124529935 L 0.4954834 0.09511626 L 0.49551392 0.0804472 L 0.49554443 0.066261604 L 0.4955597 0.059462786 L 0.49557495 0.05292058 L 0.4955902 0.046680957 L 0.49560547 0.040789057 L 0.49562073 0.035289634 L 0.495636 0.030226022 L 0.49565125 0.025640678 L 0.4956665 0.02157401 L 0.49568176 0.018064106 L 0.49569702 0.015146822 L 0.49571228 0.012854916 L 0.49572754 0.011217922 L 0.4957428 0.010261541 L 0.49575806 0.010007387 L 0.49577332 0.01047262 L 0.49578857 0.011669481 L 0.49580383 0.0136049865 L 0.4958191 0.0162807 L 0.49583435 0.019692343 L 0.4958496 0.023829365 L 0.49586487 0.028674984 L 0.49588013 0.034206044 L 0.4958954 0.040392518 L 0.49591064 0.047197737 L 0.4959259 0.054578252 L 0.49594116 0.0624839 L 0.49595642 0.070857905 L 0.49597168 0.079637066 L 0.49609375 0.15504411 L 0.496109 0.16376527 L 0.49612427 0.17200713 L 0.49613953 0.17967205 L 0.4961548 0.18666507 L 0.49617004 0.19289453 L 0.4961853 0.19827381 L 0.49620056 0.20272267 L 0.49621582 0.20616798 L 0.49623108 0.20854585 L 0.49624634 0.20980231 L 0.4962616 0.2098949 L 0.49627686 0.20879376 L 0.4962921 0.20648274 L 0.49630737 0.20296058 L 0.49632263 0.19824158 L 0.4963379 0.19235644 L 0.49635315 0.18535283 L 0.4963684 0.1772957 L 0.49638367 0.16826724 L 0.49639893 0.15836698 L 0.49641418 0.14771108 L 0.49642944 0.13643174 L 0.4964447 0.12467629 L 0.49645996 0.11260553 L 0.49649048 0.08821805 L 0.49650574 0.07627375 L 0.496521 0.06475361 L 0.49653625 0.05385381 L 0.4965515 0.04376913 L 0.49656677 0.03468894 L 0.49658203 0.026794117 L 0.4965973 0.020252716 L 0.49661255 0.01521607 L 0.4966278 0.011815315 L 0.49664307 0.010156977 L 0.49665833 0.010319698 L 0.49667358 0.012350726 L 0.49668884 0.016262908 L 0.4967041 0.022032123 L 0.49671936 0.029595625 L 0.49673462 0.038850285 L 0.49674988 0.049652614 L 0.49676514 0.061819054 L 0.4967804 0.075127415 L 0.49679565 0.08931954 L 0.4968109 0.104104504 L 0.49682617 0.11916371 L 0.49684143 0.13415629 L 0.4968567 0.14872679 L 0.49687195 0.16251183 L 0.4968872 0.17515042 L 0.49690247 0.18629202 L 0.49691772 0.19560811 L 0.49693298 0.20280156 L 0.49694824 0.20761757 L 0.4969635 0.20985392 L 0.49697876 0.20937045 L 0.49699402 0.20609772 L 0.49700928 0.20004424 L 0.49702454 0.1913017 L 0.4970398 0.18004835 L 0.49705505 0.16655013 L 0.4970703 0.15115774 L 0.49708557 0.1343019 L 0.49710083 0.11648437 L 0.49713135 0.0802518 L 0.4971466 0.0630724 L 0.49716187 0.047362816 L 0.49717712 0.033738483 L 0.49719238 0.022770787 L 0.49720764 0.0149604855 L 0.4972229 0.010713434 L 0.49723816 0.010315192 L 0.49725342 0.013910341 L 0.49726868 0.021484721 L 0.49728394 0.032853913 L 0.4972992 0.047656972 L 0.49731445 0.065359 L 0.4973297 0.085262574 L 0.49734497 0.10652628 L 0.49736023 0.1281949 L 0.4973755 0.14923763 L 0.49739075 0.16859356 L 0.497406 0.1852253 L 0.49742126 0.19817626 L 0.49743652 0.20662916 L 0.49745178 0.20996411 L 0.49746704 0.2078112 L 0.4974823 0.20009336 L 0.49749756 0.18705662 L 0.49751282 0.1692831 L 0.49752808 0.14768393 L 0.49754333 0.12347045 L 0.4975586 0.09809882 L 0.49757385 0.07319556 L 0.4975891 0.050458927 L 0.49760437 0.03154493 L 0.49761963 0.017942388 L 0.4976349 0.01084652 L 0.49765015 0.01103993 L 0.4976654 0.01879282 L 0.49768066 0.03379289 L 0.49769592 0.055116337 L 0.49771118 0.08124854 L 0.49772644 0.11015972 L 0.4977417 0.13943593 L 0.49775696 0.16646561 L 0.49777222 0.1886657 L 0.49778748 0.20373504 L 0.49780273 0.2099119 L 0.497818 0.20620771 L 0.49783325 0.192589 L 0.4978485 0.17007658 L 0.49786377 0.14074022 L 0.4978943 0.07421477 L 0.49790955 0.04461932 L 0.4979248 0.022552794 L 0.49794006 0.0111154495 L 0.49795532 0.012255174 L 0.49797058 0.026381278 L 0.49798584 0.052140974 L 0.4980011 0.08642392 L 0.49801636 0.12462983 L 0.49803162 0.16120915 L 0.49804688 0.1904313 L 0.49806213 0.20729482 L 0.4980774 0.20844784 L 0.49809265 0.19295362 L 0.4981079 0.16273367 L 0.49812317 0.12254442 L 0.49813843 0.079402946 L 0.4981537 0.041477807 L 0.49816895 0.016571105 L 0.4981842 0.010445219 L 0.49819946 0.02533356 L 0.49821472 0.059016578 L 0.49822998 0.10479073 L 0.49824524 0.15251788 L 0.4982605 0.1906999 L 0.49827576 0.20924446 L 0.49829102 0.20230651 L 0.49830627 0.17042446 L 0.49832153 0.12118437 L 0.4983368 0.06790334 L 0.49835205 0.02633053 L 0.4983673 0.010007763 L 0.49838257 0.025560385 L 0.49839783 0.069533214 L 0.4984131 0.1282503 L 0.49842834 0.18140967 L 0.4984436 0.2088521 L 0.49845886 0.19849166 L 0.49847412 0.15236244 L 0.49848938 0.0877345 L 0.49850464 0.03166602 L 0.4985199 0.010017389 L 0.49853516 0.03497976 L 0.49855042 0.097058564 L 0.49856567 0.16680285 L 0.49858093 0.20765443 L 0.4985962 0.19530757 L 0.49861145 0.13367751 L 0.4986267 0.056784112 L 0.49864197 0.011827474 L 0.49865723 0.030107921 L 0.4986725 0.103056766 L 0.49868774 0.18218191 L 0.498703 0.20912805 L 0.49871826 0.15975446 L 0.49873352 0.06929506 L 0.49874878 0.011774385 L 0.49876404 0.04018836 L 0.4987793 0.13363321 L 0.49879456 0.20567317 L 0.4988098 0.18190861 L 0.49882507 0.08153081 L 0.49884033 0.011312807 L 0.4988556 0.054925054 L 0.49887085 0.16626354 L 0.4988861 0.20713489 L 0.49890137 0.11838639 L 0.49891663 0.01686747 L 0.49893188 0.051496483 L 0.49894714 0.17683095 L 0.4989624 0.19483706 L 0.49897766 0.068717465 L 0.49899292 0.015618235 L 0.49900818 0.13894483 L 0.49902344 0.20558551 L 0.4990387 0.07544351 L 0.49905396 0.020388996 L 0.4990692 0.16825931 L 0.49908447 0.1766179 L 0.49909973 0.019893378 L 0.499115 0.09959562 L 0.49913025 0.20531511 L 0.4991455 0.03898974 L 0.49916077 0.08777161 L 0.49917603 0.20164645 L 0.49919128 0.01952815 L 0.49920654 0.14588758 L 0.4992218 0.13987002 L 0.49923706 0.033253007 L 0.49925232 0.20738383 L 0.49926758 0.010791999 L 0.49928284 0.20349851 L 0.4992981 0.020975208 L 0.49931335 0.20010988 L 0.4993286 0.013900024 L 0.49934387 0.20991158 L 0.49935913 0.023682153 L 0.4993744 0.14684328 L 0.49938965 0.15592745 L 0.4994049 0.010058397 L 0.49942017 0.14187692 L 0.49943542 0.2030267 L 0.49945068 0.093286306 L 0.49946594 0.015106368 L 0.4994812 0.020174045 L 0.49949646 0.04761995 L 0.49951172 0.053826578 L 0.49952698 0.03045556 L 0.49954224 0.010633821 L 0.4995575 0.089304164 L 0.49957275 0.20999639 L 0.499588 0.036661547 L 0.49960327 0.17699389 L 0.49961853 0.011597318 L 0.4996338 0.1349225 L 0.49969482 0.1915942 L 0.49971008 0.04957205 L 0.49972534 0.07704281 L 0.4997406 0.18895078 L 0.49975586 0.20294654 L 0.49977112 0.087660275 L 0.49978638 0.108301796 L 0.49980164 0.20947471 L 0.4998169 0.06172782 L 0.49983215 0.01995492 L 0.4998474 0.20434472 L 0.49986267 0.047768224 L 0.49987793 0.17857768 L 0.4998932 0.113395944 L 0.49990845 0.02544899 L 0.4999237 0.047445167 L 0.49993896 0.010176694 L 0.49995422 0.019706393 L 0.49996948 0.09813689 L 0.49998474 0.13355868 L 0.49999237 0.15579116 M 0.5000076 0.06420885 L 0.50001526 0.08644132 L 0.5000305 0.12186311 L 0.5000458 0.20029362 L 0.50006104 0.20982333 L 0.5000763 0.17255484 L 0.50009155 0.19455102 L 0.5001068 0.10660406 L 0.5001221 0.04142233 L 0.5001373 0.17223178 L 0.5001526 0.01565528 L 0.50016785 0.20004508 L 0.5001831 0.15827218 L 0.50019836 0.010525298 L 0.5002136 0.11169821 L 0.5002289 0.13233973 L 0.50024414 0.01705346 L 0.5002594 0.031049227 L 0.50027466 0.14295718 L 0.5002899 0.17042795 L 0.5003052 0.028405804 L 0.5003662 0.0850775 L 0.50038147 0.20840268 L 0.5003967 0.043006115 L 0.500412 0.18333845 L 0.50042725 0.010003609 L 0.5004425 0.13069585 L 0.50045776 0.20936617 L 0.500473 0.18954444 L 0.5004883 0.16617343 L 0.50050354 0.17238006 L 0.5005188 0.19982596 L 0.50053406 0.20489363 L 0.5005493 0.1267137 L 0.5005646 0.016973298 L 0.50057983 0.07812308 L 0.5005951 0.2099416 L 0.50061035 0.06407255 L 0.5006256 0.073156714 L 0.50064087 0.19631785 L 0.5006561 0.010088432 L 0.5006714 0.20609999 L 0.50068665 0.019890118 L 0.5007019 0.1990248 L 0.50071716 0.016501505 L 0.5007324 0.20920801 L 0.5007477 0.012616182 L 0.50076294 0.186747 L 0.5007782 0.08012998 L 0.50079346 0.074112415 L 0.5008087 0.20047185 L 0.500824 0.018353563 L 0.50083923 0.1322284 L 0.5008545 0.18101028 L 0.50086975 0.014684903 L 0.500885 0.120404385 L 0.50090027 0.20010662 L 0.5009155 0.0433821 L 0.5009308 0.0517407 L 0.50094604 0.19961101 L 0.5009613 0.1445565 L 0.50097656 0.014414495 L 0.5009918 0.08105516 L 0.5010071 0.20438178 L 0.50102234 0.15128253 L 0.5010376 0.025162946 L 0.50105286 0.04316906 L 0.5010681 0.16850352 L 0.5010834 0.20313254 L 0.50109863 0.10161362 L 0.5011139 0.012865114 L 0.50112915 0.053736478 L 0.5011444 0.16507494 L 0.50115967 0.20868722 L 0.5011749 0.13846919 L 0.5011902 0.0380914 L 0.50120544 0.014326846 L 0.5012207 0.0863668 L 0.50123596 0.17981164 L 0.5012512 0.20822564 L 0.5012665 0.15070495 L 0.50128174 0.06024555 L 0.501297 0.010871959 L 0.50131226 0.037818093 L 0.5013275 0.11694324 L 0.5013428 0.18989208 L 0.50135803 0.20817253 L 0.5013733 0.1632159 L 0.50138855 0.08632249 L 0.5014038 0.02469244 L 0.50141907 0.01234557 L 0.5014343 0.053197157 L 0.5014496 0.12294145 L 0.50146484 0.18502024 L 0.5014801 0.2099826 L 0.50149536 0.18833399 L 0.5015106 0.13226551 L 0.5015259 0.06763758 L 0.50154114 0.021508342 L 0.5015564 0.011147916 L 0.50157166 0.03859034 L 0.5015869 0.091749705 L 0.5016022 0.1504668 L 0.50161743 0.19443962 L 0.5016327 0.20999224 L 0.50164795 0.19366947 L 0.5016632 0.15209666 L 0.50167847 0.098815635 L 0.5016937 0.049575537 L 0.501709 0.017693495 L 0.50172424 0.0107555445 L 0.5017395 0.0293001 L 0.50175476 0.067482114 L 0.50177 0.11520927 L 0.5017853 0.16098341 L 0.50180054 0.19466645 L 0.5018158 0.20955479 L 0.50183105 0.2034289 L 0.5018463 0.1785222 L 0.5018616 0.14059706 L 0.50187683 0.09745558 L 0.5018921 0.057266325 L 0.50190735 0.027046394 L 0.5019226 0.011552173 L 0.50193787 0.012705183 L 0.5019531 0.029568708 L 0.5019684 0.058790844 L 0.50198364 0.09537017 L 0.5019989 0.13357608 L 0.50201416 0.16785903 L 0.5020294 0.19361873 L 0.5020447 0.20774484 L 0.50205994 0.20888455 L 0.5020752 0.19744721 L 0.50209045 0.17538068 L 0.5021057 0.14578524 L 0.50213623 0.07925979 L 0.5021515 0.049923427 L 0.50216675 0.027411008 L 0.502182 0.0137922885 L 0.50219727 0.01008811 L 0.5022125 0.016264956 L 0.5022278 0.03133431 L 0.50224304 0.0535344 L 0.5022583 0.080564074 L 0.50227356 0.10984029 L 0.5022888 0.13875148 L 0.5023041 0.16488366 L 0.50231934 0.18620712 L 0.5023346 0.20120719 L 0.50234985 0.20896009 L 0.5023651 0.20915349 L 0.5023804 0.20205763 L 0.50239563 0.18845508 L 0.5024109 0.16954108 L 0.50242615 0.14680444 L 0.5024414 0.12190119 L 0.50245667 0.09652956 L 0.5024719 0.072316065 L 0.5024872 0.050716896 L 0.50250244 0.03294339 L 0.5025177 0.019906634 L 0.50253296 0.012188804 L 0.5025482 0.010035897 L 0.5025635 0.013370854 L 0.50257874 0.02182374 L 0.502594 0.03477471 L 0.50260925 0.05140646 L 0.5026245 0.07076238 L 0.5026398 0.09180509 L 0.502655 0.11347373 L 0.5026703 0.13473743 L 0.50268555 0.154641 L 0.5027008 0.17234305 L 0.50271606 0.1871461 L 0.5027313 0.19851528 L 0.5027466 0.20608966 L 0.50276184 0.2096848 L 0.5027771 0.20928657 L 0.50279236 0.20503953 L 0.5028076 0.19722922 L 0.5028229 0.18626152 L 0.50283813 0.1726372 L 0.5028534 0.15692762 L 0.50286865 0.1397482 L 0.50289917 0.10351564 L 0.5029144 0.085698105 L 0.5029297 0.06884227 L 0.50294495 0.05344986 L 0.5029602 0.03995166 L 0.50297546 0.028698301 L 0.5029907 0.019955749 L 0.503006 0.013902282 L 0.50302124 0.010629552 L 0.5030365 0.010146087 L 0.50305176 0.01238243 L 0.503067 0.017198449 L 0.5030823 0.0243919 L 0.50309753 0.033707976 L 0.5031128 0.044849575 L 0.50312805 0.057488184 L 0.5031433 0.071273215 L 0.50315857 0.08584372 L 0.5031738 0.1008363 L 0.5031891 0.115895495 L 0.50320435 0.13068047 L 0.5032196 0.14487259 L 0.50323486 0.15818095 L 0.5032501 0.1703474 L 0.5032654 0.18114972 L 0.50328064 0.19040439 L 0.5032959 0.19796789 L 0.50331116 0.2037371 L 0.5033264 0.20764928 L 0.5033417 0.20968032 L 0.50335693 0.20984301 L 0.5033722 0.20818469 L 0.50338745 0.20478395 L 0.5034027 0.1997473 L 0.50341797 0.19320588 L 0.5034332 0.18531106 L 0.5034485 0.17623088 L 0.50346375 0.16614619 L 0.503479 0.1552464 L 0.50349426 0.14372626 L 0.5035095 0.13178195 L 0.50354004 0.10739448 L 0.5035553 0.09532371 L 0.50357056 0.08356826 L 0.5035858 0.072288916 L 0.5036011 0.061633028 L 0.50361633 0.051732767 L 0.5036316 0.042704307 L 0.50364685 0.034647178 L 0.5036621 0.027643567 L 0.50367737 0.021758426 L 0.5036926 0.017039413 L 0.5037079 0.013517248 L 0.50372314 0.011206252 L 0.5037384 0.010105098 L 0.50375366 0.010197681 L 0.5037689 0.011454147 L 0.5037842 0.013832015 L 0.50379944 0.017277341 L 0.5038147 0.021726191 L 0.50382996 0.02710548 L 0.5038452 0.033334933 L 0.5038605 0.040327948 L 0.50387573 0.047992878 L 0.503891 0.056234747 L 0.50390625 0.064955905 L 0.5040283 0.14036295 L 0.5040436 0.1491421 L 0.50405884 0.15751609 L 0.5040741 0.16542175 L 0.50408936 0.17280227 L 0.5041046 0.17960748 L 0.5041199 0.18579397 L 0.50413513 0.19132502 L 0.5041504 0.19617064 L 0.50416565 0.20030765 L 0.5041809 0.2037193 L 0.50419617 0.206395 L 0.5042114 0.20833054 L 0.5042267 0.2095274 L 0.50424194 0.20999262 L 0.5042572 0.20973846 L 0.50427246 0.20878208 L 0.5042877 0.2071451 L 0.504303 0.20485318 L 0.50431824 0.20193592 L 0.5043335 0.198426 L 0.50434875 0.19435933 L 0.504364 0.18977399 L 0.5043793 0.18471037 L 0.50439453 0.17921095 L 0.5044098 0.17331906 L 0.50442505 0.16707942 L 0.5044403 0.16053721 L 0.50445557 0.15373841 L 0.5044861 0.1395528 L 0.5045166 0.12488375 L 0.50457764 0.09547007 L 0.50460815 0.08135822 L 0.5046234 0.07457565 L 0.5046387 0.06801747 L 0.50465393 0.061712455 L 0.5046692 0.0556875 L 0.50468445 0.04996668 L 0.5046997 0.044572245 L 0.50471497 0.03952378 L 0.5047302 0.034838803 L 0.5047455 0.030531991 L 0.50476074 0.02661646 L 0.504776 0.023102378 L 0.50479126 0.019998211 L 0.5048065 0.01730988 L 0.5048218 0.015041554 L 0.50483704 0.01319505 L 0.5048523 0.011770469 L 0.50486755 0.010765946 L 0.5048828 0.010177839 L 0.5048981 0.010000867 L 0.50491333 0.010228115 L 0.5049286 0.010851199 L 0.50494385 0.011860341 L 0.5049591 0.013244515 L 0.50497437 0.014991403 L 0.5049896 0.01708771 L 0.5050049 0.01951906 L 0.50502014 0.022270352 L 0.5050354 0.025325429 L 0.50505066 0.028667724 L 0.5050659 0.03228002 L 0.5050812 0.036144473 L 0.50509644 0.04024294 L 0.50512695 0.049067684 L 0.5051575 0.05860415 L 0.505188 0.06870075 L 0.5052185 0.079206966 L 0.505249 0.08997562 L 0.50531006 0.11173712 L 0.5053406 0.12246595 L 0.5053711 0.13293158 L 0.5054016 0.14302431 L 0.5054321 0.15264525 L 0.50546265 0.16170588 L 0.50549316 0.17012873 L 0.5055237 0.17784783 L 0.5055542 0.1848077 L 0.5055847 0.19096434 L 0.50561523 0.19628398 L 0.50564575 0.20074284 L 0.50567627 0.2043272 L 0.5057068 0.20703225 L 0.5057373 0.20886171 L 0.5057678 0.20982714 L 0.50579834 0.20994738 L 0.50582886 0.20924771 L 0.5058594 0.20775929 L 0.5058899 0.20551825 L 0.5059204 0.20256534 L 0.5059509 0.19894493 L 0.50598145 0.19470462 L 0.50601196 0.18989454 L 0.5060425 0.18456651 L 0.506073 0.17877379 L 0.5061035 0.1725707 L 0.50613403 0.16601154 L 0.50616455 0.1591507 L 0.5062256 0.14473867 L 0.50634766 0.11458669 L 0.5064087 0.09960343 L 0.5064697 0.08512793 L 0.50650024 0.078170985 L 0.50653076 0.07144413 L 0.5065613 0.064976126 L 0.5065918 0.058792986 L 0.5066223 0.05291816 L 0.50665283 0.047372144 L 0.50668335 0.04217295 L 0.50671387 0.03733606 L 0.5067444 0.032874286 L 0.5067749 0.028798144 L 0.5068054 0.02511568 L 0.50683594 0.021832908 L 0.50686646 0.018953478 L 0.506897 0.016479123 L 0.5069275 0.014409661 L 0.506958 0.012743056 L 0.5069885 0.011475623 L 0.50701904 0.010602087 L 0.50704956 0.010115731 L 0.5070801 0.01000849 L 0.5071106 0.010271078 L 0.5071411 0.010893094 L 0.50717163 0.011863154 L 0.50720215 0.013168949 L 0.50723267 0.014797395 L 0.5072632 0.016734743 L 0.5072937 0.018966615 L 0.5073242 0.021478176 L 0.50735474 0.024254149 L 0.50738525 0.027278936 L 0.5074463 0.034011412 L 0.5075073 0.04154733 L 0.50756836 0.04975777 L 0.5076294 0.05851531 L 0.5076904 0.06769542 L 0.5078125 0.086849 L 0.5079346 0.10633019 L 0.50805664 0.12536389 L 0.5081177 0.13450523 L 0.5081787 0.14330202 L 0.50823975 0.15169385 L 0.5083008 0.15962826 L 0.5083618 0.16706088 L 0.50842285 0.17395452 L 0.5084839 0.18027961 L 0.5085449 0.18601303 L 0.50860596 0.19113822 L 0.508667 0.19564447 L 0.508728 0.19952658 L 0.50878906 0.2027845 L 0.5088501 0.20542257 L 0.50891113 0.20744935 L 0.50897217 0.20887704 L 0.5090332 0.20972116 L 0.50909424 0.21 L 0.5091553 0.20973435 L 0.5092163 0.20894709 L 0.50927734 0.20766282 L 0.5093384 0.20590755 L 0.5093994 0.20370845 L 0.50946045 0.20109351 L 0.5095215 0.19809124 L 0.5095825 0.19473055 L 0.50964355 0.19104047 L 0.5097046 0.18704996 L 0.5097656 0.18278778 L 0.5098877 0.17356133 L 0.51000977 0.16358092 L 0.51013184 0.15305498 L 0.5102539 0.14217749 L 0.51049805 0.12006328 L 0.5106201 0.10913141 L 0.5107422 0.09845705 L 0.51086426 0.088149376 L 0.5109863 0.07830087 L 0.5111084 0.06898854 L 0.51123047 0.060274623 L 0.51135254 0.052208167 L 0.5114746 0.044825375 L 0.5115967 0.038151592 L 0.51171875 0.032202013 L 0.5118408 0.026982766 L 0.5119629 0.022492314 L 0.51208496 0.01872238 L 0.51220703 0.015658647 L 0.5123291 0.013282019 L 0.5124512 0.011569262 L 0.51257324 0.01049378 L 0.5126953 0.010026318 L 0.5128174 0.010135573 L 0.51293945 0.010788733 L 0.5130615 0.011951971 L 0.5131836 0.013590884 L 0.51330566 0.015670806 L 0.51342773 0.018157233 L 0.5135498 0.021015972 L 0.5136719 0.024213498 L 0.51379395 0.027717054 L 0.513916 0.03149482 L 0.51416016 0.03975147 L 0.5144043 0.048752524 L 0.51464844 0.058288105 L 0.515625 0.09834507 L 0.51586914 0.10816479 L 0.5161133 0.117704846 L 0.5163574 0.12689383 L 0.51660156 0.13567479 L 0.5168457 0.14400342 L 0.51708984 0.1518467 L 0.517334 0.15918136 L 0.5175781 0.16599259 L 0.51782227 0.17227295 L 0.5180664 0.17802107 L 0.51831055 0.18324082 L 0.5185547 0.18794024 L 0.5187988 0.19213107 L 0.51904297 0.19582772 L 0.5192871 0.19904692 L 0.51953125 0.20180705 L 0.5197754 0.20412779 L 0.52001953 0.20602965 L 0.5202637 0.20753376 L 0.5205078 0.20866147 L 0.52075195 0.20943412 L 0.5209961 0.209873 L 0.52124023 0.20999905 L 0.5214844 0.20983276 L 0.5217285 0.20939405 L 0.52197266 0.2087023 L 0.52246094 0.20663348 L 0.5229492 0.20376666 L 0.5234375 0.20022996 L 0.5239258 0.19613895 L 0.52441406 0.19159713 L 0.52490234 0.18669625 L 0.5253906 0.18151711 L 0.5263672 0.17059821 L 0.52734375 0.15930137 L 0.5292969 0.13684087 L 0.53027344 0.12609303 L 0.53125 0.11583742 L 0.53222656 0.10614471 L 0.5332031 0.097053654 L 0.5341797 0.08857945 L 0.53515625 0.08072055 L 0.5361328 0.073463485 L 0.5371094 0.06678679 L 0.53808594 0.060663722 L 0.5390625 0.05506445 L 0.54003906 0.049957566 L 0.5410156 0.04531114 L 0.5419922 0.041093558 L 0.54296875 0.0372741 L 0.5439453 0.03382325 L 0.5449219 0.030712914 L 0.54589844 0.027916621 L 0.546875 0.02540953 L 0.54785156 0.023168415 L 0.5488281 0.02117173 L 0.55078125 0.017833048 L 0.5527344 0.015250904 L 0.5546875 0.013304049 L 0.5566406 0.011889833 L 0.55859375 0.010921622 L 0.5605469 0.010326391 L 0.5625 0.010042643 L 0.56640625 0.010210621 L 0.5703125 0.011101687 L 0.57421875 0.0124856355 L 0.578125 0.014198417 L 0.5859375 0.018175084 L 0.59375 0.022440474 L 0.609375 0.030787319 L 0.6171875 0.034652382 L 0.625 0.038264394 L 0.6328125 0.04162122 L 0.640625 0.044732403 L 0.65625 0.05028046 L 0.671875 0.055045616 L 0.6875 0.059159346 L 0.703125 0.062733926 L 0.71875 0.06586139 L 0.734375 0.06861614 L 0.75 0.07105817 L 0.765625 0.07323595 L 0.78125 0.075188875 L 0.8125 0.07854335 L 0.84375 0.08131768 L 0.875 0.083648264 L 0.90625 0.08563244 L 0.9375 0.08734137 L 1 0.09013307 "/></svg>